<svg width="325" height="229" viewBox="0 0 325 229" fill="none" xmlns="http://www.w3.org/2000/svg">
<g filter="url(#filter0_d)">
<path d="M4 14C4 7.37259 9.37258 2 16 2L309 2C315.627 2 321 7.37258 321 14L321 202.364C321 211.991 310.233 217.699 302.265 212.296L288.11 202.698C284.043 199.94 278.707 199.94 274.64 202.698L248.485 220.433C244.418 223.191 239.082 223.191 235.015 220.433L208.86 202.698C204.793 199.94 199.457 199.94 195.39 202.698L169.235 220.433C165.168 223.191 159.832 223.191 155.765 220.433L129.61 202.698C125.543 199.94 120.207 199.94 116.14 202.698L89.9847 220.433C85.9183 223.191 80.5817 223.191 76.5153 220.433L50.3597 202.698C46.2933 199.94 40.9567 199.94 36.8903 202.698L22.7347 212.296C14.7667 217.699 4 211.991 4 202.364L4 14Z" fill="white"/>
</g>
<defs>
<filter id="filter0_d" x="0" y="0" width="325" height="228.501" filterUnits="userSpaceOnUse" color-interpolation-filters="sRGB">
<feFlood flood-opacity="0" result="BackgroundImageFix"/>
<feColorMatrix in="SourceAlpha" type="matrix" values="0 0 0 0 0 0 0 0 0 0 0 0 0 0 0 0 0 0 127 0"/>
<feOffset dy="2"/>
<feGaussianBlur stdDeviation="2"/>
<feColorMatrix type="matrix" values="0 0 0 0 0.0566667 0 0 0 0 0.2482 0 0 0 0 0.425 0 0 0 0.19 0"/>
<feBlend mode="normal" in2="BackgroundImageFix" result="effect1_dropShadow"/>
<feBlend mode="normal" in="SourceGraphic" in2="effect1_dropShadow" result="shape"/>
</filter>
</defs>
</svg>
